# xmcd CD database file
# Copyright (C) 1993-1998 Ti Kan
# 
# Track frame offsets:
#     150
#     21622
#     41497
# 
# Disc length: 868 seconds
# 
# Revision: 1
# Processed by: cddbd v1.4b41PL1 Copyright (c) Steve Scherf et al.
# Submitted via: DiscPlay 4.0.4
# 
DISCID=21036203
DTITLE=Tracy Chapman - Smoke and Ashes
DYEAR=1900
DGENRE=
TTITLE0=Smoke and Ashes
TTITLE1=Bang Bang Bang
TTITLE2=All That You Have Is Your Soul
EXTD=
EXTT0=
EXTT1=
EXTT2=
PLAYORDER=
